<svg xmlns="http://www.w3.org/2000/svg" viewBox="0 0 110.9 117.6" className="fill-current"><path d="M110 112c-9 1-15-6-17-18l-7-41h-2L66 92 51 59l-1-2h4c2 0 3 1 3 2v3h3V47h-3v2c0 2-1 3-3 3h-8c-3-3-9-7-16-5h-1v3h1c3-1 6 0 8 2H27V31h15c2 0 3 1 3 2v2h3V24l-2 1-9 1H14v3h2c2 0 4 2 4 3v44c0 2-2 3-4 3h-2v3h19v-3h-2c-2 0-4-1-4-3V57h16l2 4-5 36c0 3-2 4-3 4h-2v2h15v-2h-2l-2-1v-1l3-30 16 35h2l2-7 13-29 4 27c1 7 4 13 9 16 3 3 7 4 11 4h5v-3h-1z"/><path d="M43 9l9-1h4l9 1 3 1c16 7 27 10 32 11v73c0 2 2 4 4 4s4-2 4-4V18c0-2-1-4-3-4-1 0-12-2-34-11l-4-1-11-2h-4L42 2h-1l-4 1C15 12 4 14 4 14c-2 0-4 1-4 3v97c0 2 2 3 4 3 2 1 4-1 4-3V21c5-1 16-4 32-11l3-1z"/></svg>